<svg width="218" height="71" viewBox="0 0 218 71" fill="none" xmlns="http://www.w3.org/2000/svg">
<rect x="0.5" y="0.586914" width="216.406" height="69.7433" rx="9.5" fill="#FEAFE8" stroke="black"/>
<rect x="52.2656" y="10.9405" width="112.879" height="49.0379" rx="9.5" fill="white" stroke="black"/>
<path d="M81.8091 30.3425C81.4625 30.3425 81.1758 30.2359 80.9491 30.0225C80.7358 29.7959 80.6291 29.5225 80.6291 29.2025C80.6291 28.8959 80.7358 28.6292 80.9491 28.4025C81.1758 28.1625 81.4625 28.0425 81.8091 28.0425C82.1558 28.0425 82.4291 28.1625 82.6291 28.4025C82.8291 28.6292 82.9291 28.8959 82.9291 29.2025C82.9291 29.5225 82.8291 29.7959 82.6291 30.0225C82.4291 30.2359 82.1558 30.3425 81.8091 30.3425ZM82.6691 31.8625V42.2425H80.9091V31.8625H82.6691ZM85.5134 31.8625C85.7134 31.6359 85.9 31.3692 86.0734 31.0625C86.26 30.7425 86.4067 30.3892 86.5134 30.0025C86.2467 29.9359 86.0334 29.7959 85.8734 29.5825C85.7134 29.3692 85.6334 29.1225 85.6334 28.8425C85.6334 28.4959 85.74 28.2159 85.9534 28.0025C86.18 27.7759 86.48 27.6625 86.8534 27.6625C87.2134 27.6625 87.5134 27.7825 87.7534 28.0225C87.9934 28.2625 88.1134 28.6092 88.1134 29.0625C88.1134 29.3425 88.0734 29.6159 87.9934 29.8825C87.9134 30.1492 87.8067 30.4092 87.6734 30.6625C87.54 30.9025 87.3934 31.1292 87.2334 31.3425C87.0867 31.5425 86.9467 31.7159 86.8134 31.8625H85.5134ZM92.1223 42.2425H90.3623V31.8625H91.9223L92.0823 33.7225H92.1223C92.4023 33.1492 92.8223 32.6625 93.3823 32.2625C93.9423 31.8625 94.6756 31.6625 95.5823 31.6625C96.3689 31.6625 97.0223 31.8492 97.5423 32.2225C98.0756 32.5959 98.4223 33.1692 98.5823 33.9425C98.8756 33.2359 99.3223 32.6825 99.9223 32.2825C100.536 31.8692 101.276 31.6625 102.142 31.6625C103.102 31.6625 103.862 31.9359 104.422 32.4825C104.982 33.0159 105.262 33.8425 105.262 34.9625V42.2425H103.482V35.1825C103.482 34.5025 103.316 34.0092 102.982 33.7025C102.649 33.3825 102.196 33.2225 101.622 33.2225C101.236 33.2225 100.896 33.2825 100.602 33.4025C100.309 33.5092 100.049 33.6625 99.8223 33.8625C99.5956 34.0625 99.3889 34.2959 99.2023 34.5625C99.0156 34.8292 98.8423 35.1092 98.6823 35.4025V42.2425H96.9223V34.9825C96.9223 34.3159 96.7556 33.8559 96.4223 33.6025C96.0889 33.3492 95.6356 33.2225 95.0623 33.2225C94.6889 33.2225 94.3556 33.2692 94.0623 33.3625C93.7689 33.4559 93.5023 33.5892 93.2623 33.7625C93.0356 33.9359 92.8289 34.1492 92.6423 34.4025C92.4556 34.6425 92.2823 34.9092 92.1223 35.2025V42.2425ZM116.4 42.4425C115.693 42.4425 115.033 42.3225 114.42 42.0825C113.806 41.8425 113.273 41.4959 112.82 41.0425C112.38 40.5759 112.033 40.0092 111.78 39.3425C111.526 38.6759 111.4 37.9092 111.4 37.0425C111.4 36.1892 111.526 35.4292 111.78 34.7625C112.033 34.0825 112.38 33.5159 112.82 33.0625C113.273 32.6092 113.806 32.2625 114.42 32.0225C115.033 31.7825 115.693 31.6625 116.4 31.6625C117.12 31.6625 117.786 31.7825 118.4 32.0225C119.013 32.2625 119.54 32.6092 119.98 33.0625C120.433 33.5159 120.786 34.0825 121.04 34.7625C121.306 35.4292 121.44 36.1892 121.44 37.0425C121.44 37.9092 121.306 38.6759 121.04 39.3425C120.786 40.0092 120.433 40.5759 119.98 41.0425C119.54 41.4959 119.013 41.8425 118.4 42.0825C117.786 42.3225 117.12 42.4425 116.4 42.4425ZM116.4 40.8625C116.866 40.8625 117.3 40.7892 117.7 40.6425C118.1 40.4825 118.44 40.2492 118.72 39.9425C119.013 39.6225 119.24 39.2225 119.4 38.7425C119.573 38.2625 119.66 37.6959 119.66 37.0425C119.66 36.3892 119.573 35.8225 119.4 35.3425C119.24 34.8625 119.013 34.4692 118.72 34.1625C118.44 33.8425 118.1 33.6092 117.7 33.4625C117.3 33.3025 116.866 33.2225 116.4 33.2225C115.933 33.2225 115.506 33.3025 115.12 33.4625C114.733 33.6092 114.393 33.8425 114.1 34.1625C113.82 34.4692 113.6 34.8625 113.44 35.3425C113.28 35.8225 113.2 36.3892 113.2 37.0425C113.2 37.6959 113.28 38.2625 113.44 38.7425C113.6 39.2225 113.82 39.6225 114.1 39.9425C114.393 40.2492 114.733 40.4825 115.12 40.6425C115.506 40.7892 115.933 40.8625 116.4 40.8625ZM126.46 37.8225H125.54V42.2425H123.78V27.9225H125.54V36.3225H126.54L130.18 31.8625H132.18L127.92 36.9825L132.26 42.2425H130.12L126.46 37.8225Z" fill="black"/>
<circle cx="15.2387" cy="17.0556" r="1.43787" fill="black"/>
<circle cx="29.6185" cy="17.0557" r="1.43787" fill="black"/>
<circle cx="22.432" cy="25.6844" r="1.43787" fill="black"/>
<circle cx="15.2387" cy="35.7463" r="1.43787" fill="black"/>
<circle cx="29.6234" cy="35.7497" r="1.43787" fill="black"/>
<circle cx="15.2387" cy="53.0014" r="1.43787" fill="black"/>
<circle cx="29.6205" cy="53.0037" r="1.43787" fill="black"/>
<circle cx="22.4252" cy="44.375" r="1.43787" fill="black"/>
<circle cx="43.4193" cy="17.053" r="1.43787" fill="black"/>
<circle cx="36.2308" cy="25.6806" r="1.43787" fill="black"/>
<circle cx="43.4193" cy="35.747" r="1.43787" fill="black"/>
<circle cx="43.4222" cy="52.9987" r="1.43787" fill="black"/>
<circle cx="36.2357" cy="44.3735" r="1.43787" fill="black"/>
<circle cx="173.988" cy="17.057" r="1.43787" fill="black"/>
<circle cx="188.368" cy="17.057" r="1.43787" fill="black"/>
<circle cx="181.181" cy="25.6869" r="1.43787" fill="black"/>
<circle cx="173.988" cy="35.7487" r="1.43787" fill="black"/>
<circle cx="188.372" cy="35.751" r="1.43787" fill="black"/>
<circle cx="173.988" cy="53.0027" r="1.43787" fill="black"/>
<circle cx="188.365" cy="53.005" r="1.43787" fill="black"/>
<circle cx="181.174" cy="44.3763" r="1.43787" fill="black"/>
<circle cx="202.162" cy="17.0526" r="1.43787" fill="black"/>
<circle cx="194.974" cy="25.6802" r="1.43787" fill="black"/>
<circle cx="202.162" cy="35.7467" r="1.43787" fill="black"/>
<circle cx="202.165" cy="52.9984" r="1.43787" fill="black"/>
<circle cx="194.979" cy="44.3731" r="1.43787" fill="black"/>
</svg>
